<?xml version="1.0" encoding="UTF-8"?>
<svg version="1.1" xmlns="http://www.w3.org/2000/svg" width="512" height="512">
<path d="M0 0 C5.71581877 3.45407543 10.76638551 9.01556616 12.5625 15.5 C12.42695318 17.46037118 12.28610416 19.42127318 12.07543945 21.375 C11.66458376 25.85888185 11.26188549 30.33289186 13.65234375 34.31591797 C16.61597142 37.78135101 20.15528248 40.52751913 23.81835938 43.21826172 C26.33549354 45.06805936 28.72061681 47.06939288 31.125 49.0625 C32.01316406 49.77535156 32.90132813 50.48820312 33.81640625 51.22265625 C37.35928299 54.16077451 40.71691772 57.28231178 44.08447266 60.41650391 C47.29566873 63.38730066 50.58886841 66.19968321 54 68.9375 C58.77871628 72.78110057 63.25407687 76.86960164 67.72631836 81.05834961 C71.90567785 84.95054446 76.26184608 88.55682885 80.71875 92.12890625 C84.69568439 95.44483918 88.46960492 98.9642687 92.23632812 102.515625 C94.60038825 104.73614244 96.85594426 106.69562951 99.5625 108.5 C101.4243034 108.2872678 101.4243034 108.2872678 103.5625 107.5 C112.04242063 104.67335979 118.96074008 104.4617005 127.19921875 108.11328125 C133.52287426 111.82385597 137.20546098 117.35874021 139.12890625 124.34765625 C140.72256685 132.25853002 138.74432291 139.11009367 134.453125 145.77734375 C133.82921875 146.67582031 133.2053125 147.57429687 132.5625 148.5 C132.90804932 149.04076172 133.25359863 149.58152344 133.60961914 150.13867188 C139.91327286 160.00939724 146.20261416 169.88860728 152.40405273 179.82397461 C153.67441927 181.85490342 154.95126816 183.88179208 156.23461914 185.90454102 C159.06060793 190.37629383 161.78813957 194.82668816 164.203125 199.53515625 C166.36099966 203.63810783 168.3301995 207.13935816 171.5625 210.5 C175.54243008 211.58582875 178.81792592 211.63488178 182.9296875 211.46875 C188.62620858 211.51775233 192.32284652 213.85782664 196.5625 217.5 C201.5387228 222.65310275 203.30126967 228.26074391 203.875 235.375 C203.67529986 241.81532954 201.6745014 248.38765828 197.1796875 253.1484375 C190.3450466 258.86048038 183.64146218 260.27698 174.8359375 259.9140625 C168.49296083 259.11172894 164.56015992 256.84373115 160.25 252.1875 C155.44845934 245.98605511 153.93382092 240.35504133 154.1484375 232.5703125 C155.02499385 226.07056448 157.86400837 220.62422568 162.875 216.375 C163.761875 215.75625 164.64875 215.1375 165.5625 214.5 C164.16483767 210.71198331 162.4133857 207.42243267 160.2890625 203.9921875 C159.63478271 202.93201416 158.98050293 201.87184082 158.30639648 200.77954102 C157.60025281 199.64459746 156.89395061 198.50975252 156.1875 197.375 C155.46338246 196.20579675 154.73950764 195.03644315 154.01586914 193.86694336 C147.18763563 182.84510851 140.33122972 171.83514396 133.26953125 160.9609375 C132.62371094 159.96320313 131.97789062 158.96546875 131.3125 157.9375 C130.77109375 157.11121094 130.2296875 156.28492188 129.671875 155.43359375 C128.5625 153.5 128.5625 153.5 128.5625 151.5 C127.469375 151.995 126.37625 152.49 125.25 153 C118.19163538 155.6453196 110.49339641 155.49714439 103.5625 152.5 C103.29622803 153.22348633 103.02995605 153.94697266 102.75561523 154.69238281 C101.55712999 157.51263661 100.1603291 159.86790809 98.47265625 162.421875 C97.85874023 163.35628418 97.24482422 164.29069336 96.61230469 165.25341797 C95.95649414 166.24229004 95.30068359 167.23116211 94.625 168.25 C93.25625343 170.33056012 91.88776563 172.41129051 90.51953125 174.4921875 C89.84486816 175.51538086 89.17020508 176.53857422 88.47509766 177.59277344 C85.45983814 182.17609106 82.47657723 186.77992886 79.51513672 191.39819336 C77.18278721 195.02888703 74.8071206 198.62144448 72.37109375 202.18359375 C71.8493457 202.95783691 71.32759766 203.73208008 70.79003906 204.52978516 C69.78547656 206.01879268 68.76840012 207.49945605 67.73730469 208.97021484 C66.20645746 211.17725042 66.20645746 211.17725042 64.5625 214.5 C65.56076932 217.17417712 67.01939096 219.17841385 68.625 221.5625 C72.68029737 227.71085408 72.10980282 234.3612676 71.5625 241.5 C69.89811428 248.15754287 65.09038702 252.69121378 59.5625 256.5 C53.13162546 259.73701739 45.01538124 259.62389015 38.1171875 257.8828125 C32.07685654 255.20611682 27.33625166 250.0238533 24.390625 244.171875 C22.38405596 237.69785035 22.2863673 229.32722423 25.0625 223.0625 C28.57394444 217.25174674 34.05470796 212.48928141 40.5625 210.5 C43.9375 210.234375 43.9375 210.234375 47.5625 210.25 C48.75875 210.24484375 49.955 210.2396875 51.1875 210.234375 C54.42054974 210.48882799 56.65667459 211.11312878 59.5625 212.5 C59.92988281 211.45585937 59.92988281 211.45585937 60.3046875 210.390625 C61.75062991 207.06765176 63.63854776 204.21756238 65.6875 201.25 C70.4136769 194.28501394 74.97394611 187.22143843 79.5 180.125 C85.81739974 170.22585357 92.16784307 160.34939743 98.5625 150.5 C98.06878906 149.74074219 97.57507813 148.98148438 97.06640625 148.19921875 C96.42574219 147.20535156 95.78507812 146.21148437 95.125 145.1875 C94.48691406 144.20136719 93.84882813 143.21523437 93.19140625 142.19921875 C89.65863872 136.34516033 89.95722803 130.15799162 90.5625 123.5 C91.61153285 120.53613863 92.94769463 118.22498407 94.5625 115.5 C94.90482811 112.31956565 94.90482811 112.31956565 92.32421875 110.1171875 C91.30772569 109.19396308 90.28232737 108.28048422 89.25 107.375 C88.70601563 106.88708984 88.16203125 106.39917969 87.6015625 105.89648438 C83.29344112 102.06315595 78.83626954 98.42717089 74.34375 94.8125 C70.79064914 91.85823636 67.4222632 88.73086576 64.04077148 85.58374023 C60.8295095 82.61284372 57.53622185 79.80038923 54.125 77.0625 C49.34628372 73.21889943 44.87092313 69.13039836 40.39868164 64.94165039 C36.21905397 61.04920579 31.86544808 57.44024047 27.40234375 53.875 C23.43224724 50.55475422 19.6858773 47.00471595 15.9765625 43.39648438 C12.34300229 39.70361667 12.34300229 39.70361667 7.5625 38.5 C5.73304189 39.61725114 5.73304189 39.61725114 4.125 41.3125 C-0.55112296 45.88012823 -4.77385569 46.80359819 -11.25 46.875 C-20.20001718 46.7439328 -24.66628 44.00957388 -31.4375 38.5 C-33.0626777 39.82045688 -34.68784816 41.14092266 -36.31298828 42.46142578 C-37.74874161 43.62791349 -39.1846172 44.79425074 -40.62060547 45.96044922 C-44.27331724 48.92723555 -47.92439426 51.89596133 -51.5703125 54.87109375 C-57.87793198 60.01413508 -64.20470145 65.12307703 -70.625 70.125 C-75.15092875 73.65224365 -79.57743734 77.26978285 -83.9375 81 C-90.02491565 86.20590464 -96.28632774 91.16185905 -102.60986328 96.07666016 C-105.85293123 98.60231954 -109.08174067 101.14612885 -112.3125 103.6875 C-113.49733644 104.61856517 -114.68222654 105.54956206 -115.8671875 106.48046875 C-116.71539062 107.14691406 -117.56359375 107.81335938 -118.4375 108.5 C-117.93089844 109.24443359 -117.93089844 109.24443359 -117.4140625 110.00390625 C-113.09685533 116.57953682 -110.7462405 122.48138984 -111.4375 130.5 C-112.16313376 132.77657626 -112.96710666 134.98282503 -113.87890625 137.19140625 C-115.22796676 142.7668941 -112.69316794 147.43072251 -110.1484375 152.28515625 C-109.81280792 152.93129379 -109.47717834 153.57743134 -109.13137817 154.2431488 C-108.03282129 156.35374113 -106.92279253 158.4580613 -105.8125 160.5625 C-105.04802768 162.02562372 -104.28436504 163.48917075 -103.52148438 164.953125 C-101.94993421 167.96692994 -100.37428062 170.97853751 -98.79589844 173.98876953 C-96.51409241 178.34602185 -94.25709101 182.71572889 -92.0078125 187.08984375 C-91.66092377 187.76386734 -91.31403503 188.43789093 -90.95663452 189.13233948 C-89.62195111 191.72572215 -88.28736535 194.31915364 -86.95428467 196.9133606 C-86.04430526 198.68278435 -85.13160098 200.45080598 -84.21875 202.21875 C-83.4462793 203.71825195 -83.4462793 203.71825195 -82.65820312 205.24804688 C-81.62705389 207.40533801 -81.62705389 207.40533801 -80.4375 208.5 C-78.12427403 208.41344058 -75.8118463 208.30528637 -73.5 208.1875 C-66.0793444 208.02434083 -61.0535693 209.57780799 -55.4375 214.5 C-50.46524757 219.66077385 -48.69921613 225.25471995 -48.125 232.375 C-48.34049372 239.78798402 -51.27796599 245.50133318 -55.4375 251.5 C-54.89561035 252.3504187 -54.89561035 252.3504187 -54.34277344 253.21801758 C-47.49803442 263.96183645 -40.65429632 274.70622689 -33.86523438 285.48535156 C-31.26591392 289.61172906 -28.65379209 293.7292574 -26.0234375 297.8359375 C-25.46543457 298.71032471 -24.90743164 299.58471191 -24.33251953 300.4855957 C-23.25638786 302.17134367 -22.17677092 303.85487309 -21.09326172 305.53588867 C-20.37420654 306.66474487 -20.37420654 306.66474487 -19.640625 307.81640625 C-19.21426758 308.48099854 -18.78791016 309.14559082 -18.34863281 309.83032227 C-17.4375 311.5 -17.4375 311.5 -17.4375 313.5 C-16.39851562 313.43039062 -15.35953125 313.36078125 -14.2890625 313.2890625 C-5.24241729 312.86447502 1.46371938 313.16827819 8.5625 319.5 C13.53071683 324.66883366 15.30028121 330.24848706 15.875 337.375 C15.67529986 343.81532954 13.6745014 350.38765828 9.1796875 355.1484375 C2.3450466 360.86048038 -4.35853782 362.27698 -13.1640625 361.9140625 C-19.50703917 361.11172894 -23.43984008 358.84373115 -27.75 354.1875 C-32.55154066 347.98605511 -34.06617908 342.35504133 -33.8515625 334.5703125 C-32.97500615 328.07056448 -30.13599163 322.62422568 -25.125 318.375 C-24.238125 317.75625 -23.35125 317.1375 -22.4375 316.5 C-27.31683321 306.97674 -33.06913748 298.03957729 -38.82324219 289.03027344 C-41.45654489 284.90269491 -44.07258301 280.7642426 -46.6875 276.625 C-47.43169189 275.44780396 -47.43169189 275.44780396 -48.19091797 274.24682617 C-52.32614054 267.69674936 -56.40161307 261.11173241 -60.4375 254.5 C-61.283125 254.82613281 -62.12875 255.15226562 -63 255.48828125 C-66.66652939 256.56740751 -69.62549887 256.73347808 -73.4375 256.6875 C-74.613125 256.68105469 -75.78875 256.67460937 -77 256.66796875 C-80.22455469 256.51040528 -83.26929074 256.10369841 -86.4375 255.5 C-87.10652344 256.56992187 -87.77554688 257.63984375 -88.46484375 258.7421875 C-100.46517867 277.86945189 -112.84834018 296.75545245 -125.4375 315.5 C-125.03917969 315.92410156 -124.64085937 316.34820312 -124.23046875 316.78515625 C-117.41429054 324.33104697 -115.82829095 329.95376619 -116.09765625 340.125 C-116.88466455 347.94080654 -120.50343929 352.06531589 -126.33984375 357.0546875 C-132.84107557 361.53412097 -139.80890917 361.17463728 -147.4375 360.5 C-154.09709333 358.81914417 -158.62297447 354.03621678 -162.4375 348.5 C-165.67451739 342.06912546 -165.56139015 333.95288124 -163.8203125 327.0546875 C-161.10737858 320.93257998 -155.9145908 316.47234978 -150.171875 313.21484375 C-147.03809767 312.39558482 -144.89018924 312.958411 -141.76708984 313.59936523 C-137.64491309 314.25006216 -134.27860483 314.27041285 -130.4375 312.5 C-124.79501484 306.95797065 -121.17375175 299.64577369 -117.38832092 292.76849365 C-114.04803515 286.70206119 -110.27016101 280.9532888 -106.4375 275.1875 C-105.20754355 273.29999358 -103.9783431 271.41199425 -102.75 269.5234375 C-100.76897834 266.49888222 -98.76181529 263.50037978 -96.6875 260.5390625 C-95.57375 258.94191406 -95.57375 258.94191406 -94.4375 257.3125 C-93.509375 256.02279297 -93.509375 256.02279297 -92.5625 254.70703125 C-91.25315125 252.61097081 -91.25315125 252.61097081 -91.58984375 250.48046875 C-92.56419104 248.20399834 -93.74966938 246.1373173 -95 244 C-97.96054718 238.13069363 -98.51077217 232.97370513 -97.4375 226.5 C-95.57693242 221.16734962 -93.02492682 215.9801169 -88.4375 212.5 C-87.7775 212.5 -87.1175 212.5 -86.4375 212.5 C-92.77964734 198.89294486 -99.4315087 185.4657506 -106.3125 172.125 C-106.67826141 171.41489777 -107.04402283 170.70479553 -107.42086792 169.97317505 C-111.3149708 162.41999307 -115.23233605 154.88635142 -119.4375 147.5 C-121.93839668 147.5 -123.16003768 148.34645723 -125.375 149.5 C-131.36007189 152.20386688 -137.43255996 152.67201423 -143.7734375 150.81640625 C-145.67481305 150.07776779 -147.55754099 149.29156169 -149.4375 148.5 C-150.7575 148.5 -152.0775 148.5 -153.4375 148.5 C-155.32327481 150.77996091 -155.32327481 150.77996091 -156.94921875 153.859375 C-157.2750444 154.4275444 -157.60087006 154.99571381 -157.93656921 155.58110046 C-159.01281696 157.46342795 -160.06842454 159.35657204 -161.125 161.25 C-162.25005021 163.22742568 -163.38066198 165.20159673 -164.51184082 167.17552185 C-165.29396523 168.54062014 -166.07445873 169.90665403 -166.85339355 171.27357483 C-171.37637459 179.19349679 -176.14271712 186.96261793 -180.9156189 194.73352051 C-181.95336895 196.42410155 -182.98845381 198.11631771 -184.0234375 199.80859375 C-184.6117334 200.76564209 -185.2000293 201.72269043 -185.80615234 202.70874023 C-187.48540125 205.58195974 -188.98178662 208.50819134 -190.4375 211.5 C-189.96699219 211.92410156 -189.49648437 212.34820312 -189.01171875 212.78515625 C-182.44734345 218.96898805 -180.30689589 223.44161428 -180 232.4375 C-180.19181773 239.68053756 -181.30063993 244.20596949 -186.30859375 249.46484375 C-193.21244731 255.8466668 -198.63917929 256.98042252 -207.9921875 256.8046875 C-215.85430755 256.10939797 -219.98708704 252.45245981 -224.9921875 246.59765625 C-229.47162097 240.09642443 -229.11213728 233.12859083 -228.4375 225.5 C-226.75664417 218.84040667 -221.97371678 214.31452553 -216.4375 210.5 C-212.05860312 208.21318279 -209.0358437 208.67954355 -204.2109375 209.265625 C-201.3101262 209.40914294 -199.36974627 209.13090269 -196.4375 208.5 C-192.07739743 204.43515339 -189.71779207 199.52475996 -187.0625 194.25 C-186.27759054 192.79770861 -185.48648185 191.34875191 -184.68945312 189.90307617 C-183.05448023 186.92854279 -181.44573952 183.94191777 -179.85253906 180.94482422 C-176.49604359 174.69293895 -172.78418909 168.66278324 -169.05682373 162.62731934 C-167.28551135 159.75539599 -165.53457376 156.87122015 -163.78125 153.98828125 C-163.20568359 153.04509033 -162.63011719 152.10189941 -162.03710938 151.13012695 C-161.24530273 149.82821411 -161.24530273 149.82821411 -160.4375 148.5 C-159.86966797 147.6133667 -159.30183594 146.7267334 -158.71679688 145.81323242 C-157.20233515 143.57368948 -157.20233515 143.57368948 -157.625 141 C-158.38427598 138.50515089 -158.38427598 138.50515089 -159.46484375 136.23828125 C-161.64433634 130.10244068 -161.6150994 122.20581095 -159 116.1875 C-155.49017197 110.32534041 -150.18165852 105.67606794 -143.9375 103 C-139.06130941 102.30340134 -134.15604039 101.64797791 -129.37866211 103.14526367 C-124.98868871 104.56532819 -124.98868871 104.56532819 -120.62597656 103.71630859 C-118.85663653 102.35580533 -117.31606825 100.90270487 -115.75 99.3125 C-114.53643945 98.17821727 -113.32022373 97.04676959 -112.1015625 95.91796875 C-111.4921582 95.34095215 -110.88275391 94.76393555 -110.25488281 94.16943359 C-107.50914718 91.64722238 -104.58428153 89.38887793 -101.625 87.125 C-96.31507117 83.01125154 -91.1091166 78.78618107 -85.9375 74.5 C-80.74315091 70.19577744 -75.5130854 65.95329224 -70.1875 61.8125 C-65.13134432 57.87993447 -60.21866143 53.81184548 -55.35522461 49.64404297 C-50.65291426 45.63407523 -45.81472254 41.81167347 -40.9296875 38.02734375 C-38.65677694 36.26360715 -36.47427958 34.53677958 -34.4375 32.5 C-34.7675 31.51 -35.0975 30.52 -35.4375 29.5 C-36.04990072 21.59902681 -36.61097714 13.94162752 -31.4375 7.5 C-23.13577971 -1.21767287 -11.72105717 -5.1940371 0 0 Z " fill="#22201F" transform="translate(269.4375,73.5)"/>
<path d="M0 0 C4.46341087 3.02306065 7.39332313 7.3440319 9.08203125 12.41015625 C9.90641126 19.14034058 8.69770022 24.6630281 5.08203125 30.41015625 C1.25577221 34.82755081 -3.25203526 36.96642128 -9.015625 37.6640625 C-14.81749896 37.97256695 -19.16336961 36.7736718 -23.91796875 33.41015625 C-28.95929958 28.85504514 -30.93799345 23.71098206 -31.29296875 17.03515625 C-31.14415928 12.1161764 -29.90051826 8.34282541 -26.91796875 4.41015625 C-18.78875211 -3.1138672 -10.14292961 -4.95600238 0 0 Z " fill="#38B249" transform="translate(139.91796875,392.58984375)"/>
<path d="M0 0 C4.46341087 3.02306065 7.39332313 7.3440319 9.08203125 12.41015625 C9.90641126 19.14034058 8.69770022 24.6630281 5.08203125 30.41015625 C1.25577221 34.82755081 -3.25203526 36.96642128 -9.015625 37.6640625 C-14.81749896 37.97256695 -19.16336961 36.7736718 -23.91796875 33.41015625 C-28.95929958 28.85504514 -30.93799345 23.71098206 -31.29296875 17.03515625 C-31.14415928 12.1161764 -29.90051826 8.34282541 -26.91796875 4.41015625 C-18.78875211 -3.1138672 -10.14292961 -4.95600238 0 0 Z " fill="#38B249" transform="translate(327.91796875,290.58984375)"/>
<path d="M0 0 C4.46341087 3.02306065 7.39332313 7.3440319 9.08203125 12.41015625 C9.90641126 19.14034058 8.69770022 24.6630281 5.08203125 30.41015625 C1.25577221 34.82755081 -3.25203526 36.96642128 -9.015625 37.6640625 C-14.81749896 37.97256695 -19.16336961 36.7736718 -23.91796875 33.41015625 C-28.95929958 28.85504514 -30.93799345 23.71098206 -31.29296875 17.03515625 C-31.14415928 12.1161764 -29.90051826 8.34282541 -26.91796875 4.41015625 C-18.78875211 -3.1138672 -10.14292961 -4.95600238 0 0 Z " fill="#38B249" transform="translate(75.91796875,288.58984375)"/>
<path d="M0 0 C4.46341087 3.02306065 7.39332313 7.3440319 9.08203125 12.41015625 C9.90641126 19.14034058 8.69770022 24.6630281 5.08203125 30.41015625 C1.25577221 34.82755081 -3.25203526 36.96642128 -9.015625 37.6640625 C-14.81749896 37.97256695 -19.16336961 36.7736718 -23.91796875 33.41015625 C-28.95929958 28.85504514 -30.93799345 23.71098206 -31.29296875 17.03515625 C-31.14415928 12.1161764 -29.90051826 8.34282541 -26.91796875 4.41015625 C-18.78875211 -3.1138672 -10.14292961 -4.95600238 0 0 Z " fill="#38B249" transform="translate(268.91796875,78.58984375)"/>
<path d="M0 0 C5.01639444 2.85782471 8.46520798 7.03370164 10.6875 12.375 C11.62981824 19.43142963 10.97237967 25.57393214 6.6875 31.375 C2.08430455 36.3187058 -2.51952971 38.43775366 -9.1875 38.75 C-15.16798696 38.59915686 -18.72082072 36.84697123 -23.00390625 32.76171875 C-27.20473819 28.19647729 -28.99669447 24.21724978 -29.6875 18 C-28.87797457 10.17458751 -25.1044846 5.68532868 -19.21484375 0.72265625 C-13.75987257 -3.14174838 -5.89029867 -2.69878703 0 0 Z " fill="#38B249" transform="translate(269.3125,392.625)"/>
<path d="M0 0 C5.01639444 2.85782471 8.46520798 7.03370164 10.6875 12.375 C11.62981824 19.43142963 10.97237967 25.57393214 6.6875 31.375 C2.08430455 36.3187058 -2.51952971 38.43775366 -9.1875 38.75 C-15.16798696 38.59915686 -18.72082072 36.84697123 -23.00390625 32.76171875 C-27.20473819 28.19647729 -28.99669447 24.21724978 -29.6875 18 C-28.87797457 10.17458751 -25.1044846 5.68532868 -19.21484375 0.72265625 C-13.75987257 -3.14174838 -5.89029867 -2.69878703 0 0 Z " fill="#38B249" transform="translate(457.3125,290.625)"/>
<path d="M0 0 C5.01639444 2.85782471 8.46520798 7.03370164 10.6875 12.375 C11.62981824 19.43142963 10.97237967 25.57393214 6.6875 31.375 C2.08430455 36.3187058 -2.51952971 38.43775366 -9.1875 38.75 C-15.16798696 38.59915686 -18.72082072 36.84697123 -23.00390625 32.76171875 C-27.20473819 28.19647729 -28.99669447 24.21724978 -29.6875 18 C-28.87797457 10.17458751 -25.1044846 5.68532868 -19.21484375 0.72265625 C-13.75987257 -3.14174838 -5.89029867 -2.69878703 0 0 Z " fill="#38B249" transform="translate(205.3125,287.625)"/>
<path d="M0 0 C4.76001629 3.5423377 9.73066614 7.90461395 10.6875 14 C11.26583122 20.01686903 10.68730087 24.62104671 7.6875 30 C3.6789459 34.7669292 -0.03859688 37.5725975 -6.3046875 38.390625 C-13.12980953 38.73739794 -17.49303336 38.22818513 -22.7265625 33.703125 C-27.67231997 28.39191747 -29.81891667 23.62383873 -29.625 16.33984375 C-28.90177197 10.92467387 -26.41318405 6.68447702 -22.3125 3.125 C-15.3372801 -1.81578076 -8.2736974 -2.49771997 0 0 Z " fill="#38B249" transform="translate(393.3125,185)"/>
<path d="M0 0 C4.76001629 3.5423377 9.73066614 7.90461395 10.6875 14 C11.26583122 20.01686903 10.68730087 24.62104671 7.6875 30 C3.6789459 34.7669292 -0.03859688 37.5725975 -6.3046875 38.390625 C-13.12980953 38.73739794 -17.49303336 38.22818513 -22.7265625 33.703125 C-27.67231997 28.39191747 -29.81891667 23.62383873 -29.625 16.33984375 C-28.90177197 10.92467387 -26.41318405 6.68447702 -22.3125 3.125 C-15.3372801 -1.81578076 -8.2736974 -2.49771997 0 0 Z " fill="#38B249" transform="translate(142.3125,182)"/>
</svg>
